<svg version="1.2" xmlns="http://www.w3.org/2000/svg" viewBox="0 0 792 612" width="792" height="612">
    <style>.a{fill:#517498}.b{fill:#231f20}.c{fill:#f4811f}</style>
    <path fill-rule="evenodd" class="a"
        d="m505.9 131.4c159.9-4.8 274.2 187.2 68.3 184.7l-132.4-185.1h-112.1l134.3 187.8h-97.5v74.5h150.8l62.5 87.4h112.1l-64.2-89.8c148.1-7.6 218.7-188.7 62.4-259.7l-160.4 0.1z" />
    <path fill-rule="evenodd" class="b"
        d="m58.2 443.9v-2.9h8.4v6.2q-1.8 2.6-4.6 3.9-2.9 1.4-6.6 1.4-5.6 0-9.2-3-3.6-3.1-3.6-7.8 0-4.6 3.6-7.7 3.6-3.1 9.2-3.1 3.5 0 6.3 1.3 2.7 1.2 4.5 3.5l-2.5 1.8q-1.3-1.7-3.5-2.7-2.2-0.9-4.8-0.9-4.2 0-6.8 2.2-2.7 2.2-2.7 5.6 0 3.4 2.7 5.6 2.6 2.2 6.8 2.2 2.6 0 4.8-0.9 2.3-1 3.2-2.5v-2.2zm16.3 7.9v-20.3h19.1v3h-15.9v5.1h10.4v2.9h-10.4v6.4h16.8v2.9zm24.8-2.5l1.6-2.7q2.1 1.4 4.6 2.2 2.4 0.8 4.7 0.8 2.7 0 4.4-1.1 1.7-1.2 1.7-2.9 0-1.7-1.6-2.6-1.5-0.8-4.8-0.9-5.5-0.1-7.6-1.3-2.1-1.2-2.1-4 0-2.7 2.3-4.3 2.3-1.6 6.1-1.6 2.6 0 5.1 0.8 2.5 0.7 4.7 2.2l-1.5 2.6q-1.9-1.3-4.1-2-2.2-0.7-4.2-0.7-2.4 0-3.8 0.8-1.4 0.9-1.4 2.2 0 1.3 1.5 1.9 1.4 0.6 4.9 0.6 4.8 0 7.3 1.6 2.5 1.7 2.5 4.9 0 2.9-2.5 4.8-2.5 1.9-6.5 1.9-3 0-5.9-0.9-2.9-0.8-5.4-2.3zm32.9 2.5v-17.5h-8.6v-2.8h20.4v2.8h-8.6v17.5zm17.1-20.4h3.2v20.4h-3.2zm23 21.1q-5.4 0-8.9-3.1-3.5-3.1-3.5-7.7 0-4.7 3.5-7.7 3.5-3.1 8.9-3.1 5.5 0.1 9 3.1 3.5 3 3.5 7.7 0 4.7-3.5 7.7-3.5 3.1-9 3.1zm0-3q4.1 0 6.7-2.2 2.6-2.2 2.6-5.6 0-3.4-2.6-5.6-2.6-2.2-6.7-2.2-4 0-6.6 2.2-2.6 2.2-2.5 5.6-0.1 3.4 2.5 5.6 2.6 2.2 6.6 2.2zm-0.7-21.2h-2.2l5-8.3h3.6zm20.6 23.5v-20.3h1.6l13 14.3v-14.3h3.1v20.3h-1.7l-12.9-14.2v14.2zm42.3 0v-10.4l-9.3-9.9h4.2l6.7 7.2 6.6-7.2h4.3l-9.4 9.9v10.4zm31-8.9v8.9h-3.2v-20.3h14q3.1 0 4.9 1.5 1.8 1.5 1.8 4.2 0 2.2-1.4 3.7-1.4 1.6-3.7 2l5.7 8.9h-3.5l-5.7-8.9zm0-3h10.8q1.6 0.1 2.5-0.7 0.9-0.7 0.9-2 0-1.4-0.9-2.1-0.9-0.7-2.5-0.7h-10.8zm25.3 11.9v-20.3h19.1v2.9h-15.9v5.1h10.4v2.9h-10.4v6.5h16.8v2.9zm24.8-2.6l1.6-2.6q2.1 1.4 4.6 2.1 2.4 0.8 4.7 0.8 2.7 0 4.4-1.1 1.7-1.1 1.7-2.8-0.1-1.8-1.6-2.6-1.5-0.9-4.8-1-5.5 0-7.6-1.2-2.1-1.3-2.1-4.1 0-2.6 2.3-4.2 2.3-1.6 6.1-1.6 2.6 0 5.1 0.8 2.5 0.7 4.7 2.2l-1.6 2.6q-1.9-1.3-4.1-2-2.1-0.7-4.1-0.7-2.4 0-3.8 0.8-1.4 0.8-1.4 2.1 0 1.4 1.4 2 1.5 0.5 5 0.5 4.8 0 7.3 1.7 2.5 1.6 2.5 4.9 0 2.8-2.5 4.8-2.5 1.9-6.5 1.9-3 0-5.9-0.9-2.9-0.8-5.4-2.4zm28.1-17.7h3.2v13.1q0 2.9 1.4 3.9 1.4 1 5.5 1 4.1 0 5.5-1 1.3-1 1.3-3.9v-13.1h3.2v13.9q0 3.7-2.4 5.4-2.3 1.7-7.7 1.7-5.3 0-7.7-1.7-2.3-1.6-2.3-5.4zm29.2 20.3v-20.4h3.2v17.4h15.1v3zm25.1 0v-17.5h-8.6v-2.9h20.4v2.9h-8.6v17.5zm11.4 0l10.3-20.4h2l10.5 20.4h-3.4l-2.7-5.2h-10.7l-2.7 5.2zm7.4-7.9h8l-4-7.8zm29.7-12.5q4.9 0 8 2.9 3 2.8 3 7.4 0 4.6-3 7.3-2.9 2.8-8 2.8h-9.1v-20.4zm0.1 3h-5.9v14.5h5.9q3.6 0 5.7-2 2-1.9 2-5.3 0-3.2-2.1-5.2-2.2-2-5.6-2zm28.8 18q-5.4 0-8.9-3-3.5-3.1-3.5-7.8 0-4.6 3.5-7.7 3.5-3 8.9-3 5.5 0 9 3 3.5 3 3.5 7.7 0 4.7-3.5 7.8-3.5 3-9 3zm0-2.9q4.1 0 6.7-2.2 2.6-2.3 2.6-5.7 0-3.3-2.6-5.6-2.6-2.2-6.7-2.2-4 0-6.6 2.2-2.5 2.2-2.5 5.6 0 3.4 2.5 5.7 2.6 2.2 6.6 2.2zm18.1-0.3l1.5-2.7q2.1 1.4 4.6 2.2 2.5 0.8 4.7 0.8 2.8 0 4.4-1.1 1.7-1.1 1.7-2.9 0-1.7-1.5-2.5-1.6-0.9-4.8-1-5.6-0.1-7.7-1.3-2-1.2-2-4-0.1-2.6 2.2-4.2 2.3-1.6 6.1-1.6 2.7 0 5.1 0.7 2.5 0.8 4.8 2.2l-1.6 2.7q-1.9-1.3-4.1-2-2.2-0.7-4.2-0.7-2.3 0-3.7 0.8-1.4 0.8-1.4 2.1 0 1.4 1.4 1.9 1.4 0.6 4.9 0.6 4.9 0 7.4 1.7 2.4 1.6 2.4 4.8 0 2.9-2.5 4.8-2.5 1.9-6.5 1.9-3 0-5.9-0.8-2.9-0.8-5.3-2.4z" />
    <path fill-rule="evenodd" class="c"
        d="m148.7 131h149.3 31.7l51.2 71.6h-218.1c-37.6-0.1-62 20.8-62 57.3 0 36.5 25.3 59.1 62.9 59.1h101.5v-41.8h86.3l0.2 116.1h-203c-74.1 0.1-134.7-58.8-134.7-130.8 0-71.9 60.6-131.5 134.7-131.5z" />
</svg>